<svg id="Capa_1" enable-background="new 0 0 512 512" height="512" viewBox="0 0 512 512" width="512" xmlns="http://www.w3.org/2000/svg"><g><g><path d="m256 352.858c-97.439 0-176.429-78.99-176.429-176.429s78.99-176.429 176.429-176.429 97.439 352.858 0 352.858z" fill="#59c36a"/><g><path d="m256 0v352.858c97.439 0 176.429-78.99 176.429-176.429s-78.99-176.429-176.429-176.429z" fill="#00a66c"/></g></g><g><path d="m259.37 512v-291.032l-3.37-25.517-43.875-21.213-13.035 27.065 41.867 20.164v30.49l-47.033-22.652-13.035 27.064 60.068 28.93v226.701z" fill="#d9ad90"/><g><path d="m317.982 229.327-46.985 22.83v-30.512l41.913-20.365-13.129-27.019-43.781 21.19v316.549h14.997v-226.445l60.114-29.209z" fill="#cc9b7c"/></g></g></g></svg>